<mxfile host="app.diagrams.net" modified="2023-10-05T02:32:57.433Z" agent="Mozilla/5.0 (Windows NT 10.0; Win64; x64) AppleWebKit/537.36 (KHTML, like Gecko) Chrome/117.0.0.0 Safari/537.36" version="22.0.2" etag="UPlS6lPrpA7t6DU-yNpe" type="github">
  <diagram name="PÃ¡gina-1" id="hObW49JdsATx64ay-wlQ">
    <mxGraphModel>
      <root>
        <mxCell id="0" />
        <mxCell id="1" parent="0" />
      </root>
    </mxGraphModel>
  </diagram>
</mxfile>
